<svg width="252" height="84" viewBox="0 0 252 84" fill="none" xmlns="http://www.w3.org/2000/svg">
<g clip-path="url(#clip0_567_1859)">
<path d="M231.283 0.000273H20.0228C19.2528 0.000273 18.4919 0.000273 17.7239 0.004473C17.081 0.008673 16.4432 0.020874 15.7941 0.031143C14.384 0.0477368 12.9772 0.171793 11.5859 0.402234C10.1966 0.637691 8.85081 1.0816 7.59406 1.71893C6.33885 2.36166 5.19192 3.19682 4.1949 4.19412C3.19264 5.18861 2.35717 6.33811 1.72063 7.59841C1.08234 8.8562 0.639745 10.204 0.408135 11.5954C0.174323 12.985 0.0485066 14.3906 0.031815 15.7996C0.012327 16.4434 0.010269 17.0894 0 17.7334V66.2733C0.010269 66.9254 0.012327 67.5571 0.031815 68.2093C0.0485117 69.6183 0.174328 71.0238 0.408135 72.4133C0.639105 73.8055 1.08173 75.1541 1.72063 76.4123C2.35688 77.6686 3.19246 78.8134 4.1949 79.8024C5.18814 80.8041 6.33581 81.6398 7.59406 82.2776C8.8508 82.9167 10.1964 83.3632 11.5859 83.6023C12.9774 83.8309 14.3841 83.955 15.7941 83.9736C16.4432 83.9879 17.081 83.9961 17.7239 83.9961C18.4919 84.0003 19.2528 84.0003 20.0228 84.0003H231.283C232.038 84.0003 232.805 84.0003 233.559 83.9961C234.199 83.9961 234.856 83.9879 235.495 83.9736C236.903 83.956 238.307 83.8319 239.695 83.6023C241.089 83.3615 242.44 82.9151 243.703 82.2776C244.96 81.6395 246.106 80.8037 247.099 79.8024C248.099 78.8095 248.936 77.6655 249.58 76.4123C250.214 75.1532 250.653 73.8046 250.88 72.4133C251.114 71.0236 251.245 69.6184 251.27 68.2093C251.278 67.5571 251.278 66.9254 251.278 66.2733C251.295 65.5104 251.295 64.7517 251.295 63.9763V20.0261C251.295 19.2571 251.295 18.4942 251.278 17.7334C251.278 17.0894 251.278 16.4434 251.27 15.7995C251.245 14.3904 251.114 12.9851 250.88 11.5953C250.652 10.2048 250.214 8.85703 249.58 7.59832C248.284 5.07218 246.228 3.01593 243.703 1.71874C242.44 1.08296 241.089 0.639178 239.695 0.402045C238.307 0.170589 236.903 0.0464893 235.495 0.030849C234.856 0.020601 234.199 0.008295 233.559 0.0042C232.805 0 232.038 0 231.283 0V0.000273Z" fill="#A6A6A6"/>
<path d="M17.7343 82.1624C17.0945 82.1624 16.4701 82.1542 15.8353 82.1399C14.5203 82.1228 13.2083 82.0083 11.9101 81.7974C10.6997 81.5889 9.52704 81.2012 8.43096 80.6468C7.34493 80.0971 6.35438 79.3763 5.49726 78.512C4.62774 77.6578 3.90382 76.6672 3.35419 75.5793C2.79851 74.4844 2.41394 73.3107 2.21389 72.0992C1.99785 70.7974 1.88097 69.4812 1.86424 68.1617C1.85093 67.7188 1.8335 66.2442 1.8335 66.2442V17.733C1.8335 17.733 1.85206 16.2811 1.86435 15.8545C1.88036 14.5371 1.99657 13.2229 2.21196 11.9231C2.41238 10.7083 2.79724 9.53127 3.35322 8.43272C3.90083 7.34558 4.62073 6.35421 5.48502 5.49703C6.34833 4.63171 7.34205 3.90717 8.42993 3.34984C9.5235 2.7973 10.6939 2.41224 11.9019 2.20757C13.2043 1.99456 14.5209 1.87939 15.8405 1.86304L17.7353 1.8374H233.549L235.467 1.86407C236.774 1.87961 238.079 1.99375 239.369 2.20551C240.59 2.41275 241.772 2.80049 242.878 3.356C245.058 4.47917 246.831 6.25615 247.95 8.43785C248.497 9.52882 248.876 10.6963 249.074 11.9006C249.292 13.211 249.414 14.5356 249.439 15.8637C249.445 16.4584 249.445 17.0973 249.445 17.733C249.461 18.5205 249.461 19.2701 249.461 20.0258V63.976C249.461 64.7389 249.461 65.4834 249.445 66.2339C249.445 66.9168 249.445 67.5424 249.437 68.1863C249.412 69.4907 249.292 70.7917 249.078 72.0786C248.882 73.2989 248.499 74.4817 247.944 75.5856C247.39 76.6617 246.67 77.6438 245.811 78.4956C244.953 79.3645 243.961 80.0896 242.872 80.6428C241.769 81.2014 240.588 81.5907 239.369 81.7974C238.071 82.0094 236.759 82.1239 235.444 82.1399C234.829 82.1542 234.185 82.1624 233.56 82.1624L231.283 82.1666L17.7343 82.1624Z" fill="white"/>
<path d="M52.0148 42.6319C52.0374 40.8791 52.5029 39.1605 53.3682 37.636C54.2335 36.1115 55.4703 34.8306 56.9636 33.9125C56.0149 32.5577 54.7634 31.4427 53.3085 30.6562C51.8536 29.8696 50.2353 29.4331 48.5821 29.3814C45.0557 29.0113 41.637 31.4916 39.84 31.4916C38.0083 31.4916 35.2415 29.4182 32.2622 29.4795C30.3351 29.5417 28.4569 30.1021 26.8108 31.106C25.1647 32.11 23.8066 33.5232 22.8691 35.208C18.8077 42.2397 21.8371 52.5739 25.7276 58.2577C27.6741 61.041 29.949 64.1499 32.9256 64.0397C35.8384 63.9189 36.9263 62.1823 40.4423 62.1823C43.9257 62.1823 44.9464 64.0397 47.9834 63.9696C51.109 63.9188 53.0783 61.174 54.9565 58.3644C56.3551 56.3812 57.4312 54.1894 58.1452 51.8701C56.3293 51.1021 54.7797 49.8165 53.6895 48.1737C52.5994 46.5309 52.0169 44.6035 52.0148 42.6319Z" fill="black"/>
<path d="M46.2787 25.6428C47.9829 23.597 48.8225 20.9674 48.6192 18.3125C46.0156 18.586 43.6105 19.8303 41.8833 21.7977C41.0388 22.7588 40.392 23.8769 39.9799 25.0881C39.5678 26.2993 39.3984 27.5799 39.4815 28.8566C40.7838 28.87 42.0721 28.5877 43.2495 28.0311C44.4269 27.4744 45.4627 26.6578 46.2787 25.6428Z" fill="black"/>
<path d="M88.8363 56.9931H78.8962L76.5091 64.0417H72.2988L81.714 37.9639H86.0883L95.5034 64.0417H91.2214L88.8363 56.9931ZM79.9257 53.7406H87.8049L83.9207 42.3013H83.812L79.9257 53.7406Z" fill="black"/>
<path d="M115.837 54.537C115.837 60.4453 112.674 64.2413 107.902 64.2413C106.693 64.3045 105.491 64.0261 104.433 63.4378C103.375 62.8495 102.504 61.9752 101.92 60.9149H101.83V70.3321H97.9272V45.0296H101.705V48.1919H101.777C102.388 47.1367 103.273 46.2669 104.339 45.675C105.405 45.0832 106.612 44.7914 107.831 44.8307C112.656 44.8307 115.837 48.6451 115.837 54.537ZM111.825 54.537C111.825 50.6877 109.836 48.157 106.801 48.157C103.819 48.157 101.814 50.741 101.814 54.537C101.814 58.3679 103.819 60.9334 106.801 60.9334C109.836 60.9334 111.825 58.4212 111.825 54.537Z" fill="black"/>
<path d="M136.763 54.537C136.763 60.4453 133.601 64.2413 128.829 64.2413C127.62 64.3045 126.417 64.0261 125.359 63.4378C124.302 62.8495 123.431 61.9751 122.846 60.9149H122.756V70.3321H118.854V45.0296H122.631V48.1919H122.703C123.314 47.1367 124.199 46.2669 125.265 45.675C126.332 45.0832 127.538 44.7913 128.757 44.8307C133.582 44.8307 136.763 48.6451 136.763 54.537ZM132.752 54.537C132.752 50.6877 130.762 48.157 127.727 48.157C124.745 48.157 122.74 50.741 122.74 54.537C122.74 58.3679 124.745 60.9334 127.727 60.9334C130.762 60.9334 132.752 58.4212 132.752 54.537H132.752Z" fill="black"/>
<path d="M150.594 56.776C150.883 59.362 153.395 61.06 156.828 61.06C160.117 61.06 162.484 59.3619 162.484 57.0302C162.484 55.0061 161.057 53.7941 157.677 52.9635L154.297 52.1493C149.509 50.9927 147.286 48.7532 147.286 45.1192C147.286 40.6198 151.207 37.5293 156.775 37.5293C162.285 37.5293 166.063 40.6198 166.19 45.1192H162.25C162.014 42.5168 159.863 40.9459 156.719 40.9459C153.575 40.9459 151.424 42.5353 151.424 44.8486C151.424 46.6922 152.798 47.7771 156.159 48.6076L159.033 49.313C164.383 50.5784 166.606 52.7276 166.606 56.542C166.606 61.4208 162.72 64.4765 156.539 64.4765C150.756 64.4765 146.851 61.4926 146.599 56.7758L150.594 56.776Z" fill="black"/>
<path d="M175.029 40.5298V45.0292H178.644V48.1197H175.029V58.6013C175.029 60.2296 175.753 60.9884 177.342 60.9884C177.771 60.9809 178.2 60.9508 178.626 60.8981V63.9701C177.911 64.1037 177.185 64.1641 176.458 64.1506C172.609 64.1506 171.108 62.7048 171.108 59.0175V48.1197H168.343V45.0292H171.108V40.5298H175.029Z" fill="black"/>
<path d="M180.738 54.5366C180.738 48.5545 184.261 44.7954 189.755 44.7954C195.268 44.7954 198.774 48.5544 198.774 54.5366C198.774 60.5352 195.286 64.2778 189.755 64.2778C184.226 64.2778 180.738 60.5351 180.738 54.5366ZM194.798 54.5366C194.798 50.433 192.917 48.011 189.755 48.011C186.593 48.011 184.714 50.4515 184.714 54.5366C184.714 58.6566 186.593 61.0602 189.755 61.0602C192.917 61.0602 194.798 58.6566 194.798 54.5366H194.798Z" fill="black"/>
<path d="M201.992 45.0294H205.714V48.2655H205.805C206.057 47.2548 206.649 46.3616 207.481 45.7361C208.314 45.1105 209.337 44.7907 210.378 44.8305C210.828 44.8289 211.276 44.8777 211.715 44.9761V48.6265C211.147 48.453 210.555 48.3733 209.962 48.3906C209.395 48.3676 208.829 48.4676 208.305 48.6837C207.78 48.8997 207.308 49.2268 206.922 49.6423C206.536 50.0579 206.244 50.5521 206.066 51.0912C205.889 51.6302 205.831 52.2012 205.895 52.7649V64.0422H201.992L201.992 45.0294Z" fill="black"/>
<path d="M229.709 58.4577C229.184 61.9092 225.823 64.2778 221.522 64.2778C215.991 64.2778 212.558 60.5721 212.558 54.6269C212.558 48.6632 216.01 44.7954 221.358 44.7954C226.618 44.7954 229.926 48.4089 229.926 54.1736V55.5107H216.498V55.7466C216.436 56.4463 216.523 57.1512 216.755 57.8145C216.986 58.4777 217.356 59.0842 217.84 59.5935C218.323 60.1029 218.91 60.5035 219.56 60.7687C220.211 61.0339 220.91 61.1578 221.612 61.1319C222.535 61.2183 223.46 61.0047 224.251 60.5229C225.042 60.0411 225.657 59.3168 226.003 58.4577L229.709 58.4577ZM216.516 52.7832H226.021C226.057 52.154 225.961 51.5244 225.741 50.9339C225.521 50.3434 225.182 49.8046 224.744 49.3515C224.306 48.8984 223.779 48.5407 223.197 48.3009C222.614 48.061 221.988 47.9442 221.358 47.9577C220.722 47.9539 220.092 48.076 219.504 48.317C218.916 48.5579 218.382 48.913 217.932 49.3616C217.481 49.8102 217.125 50.3436 216.882 50.9309C216.639 51.5181 216.514 52.1477 216.516 52.7832V52.7832Z" fill="black"/>
<path d="M79.4343 18.335C80.2525 18.2763 81.0735 18.3999 81.8381 18.6969C82.6027 18.9939 83.2919 19.4569 83.856 20.0526C84.42 20.6482 84.8448 21.3615 85.0998 22.1412C85.3547 22.9209 85.4334 23.7474 85.3303 24.5612C85.3303 28.5643 83.1667 30.8654 79.4343 30.8654H74.9082V18.335H79.4343ZM76.8544 29.0933H79.2169C79.8015 29.1283 80.3866 29.0324 80.9295 28.8127C81.4725 28.593 81.9596 28.255 82.3554 27.8233C82.7513 27.3917 83.0459 26.8771 83.2178 26.3172C83.3897 25.7573 83.4346 25.1662 83.3492 24.5867C83.4284 24.0096 83.3789 23.422 83.2044 22.8663C83.0298 22.3105 82.7345 21.8002 82.3396 21.3719C81.9446 20.9436 81.4599 20.608 80.92 20.3892C80.3801 20.1703 79.7985 20.0735 79.2169 20.1058H76.8544V29.0933Z" fill="black"/>
<path d="M87.5294 26.133C87.4699 25.5115 87.541 24.8845 87.7381 24.2922C87.9352 23.6998 88.2539 23.1552 88.6737 22.6933C89.0936 22.2313 89.6054 21.8622 90.1763 21.6096C90.7472 21.357 91.3646 21.2266 91.9888 21.2266C92.6131 21.2266 93.2305 21.357 93.8013 21.6096C94.3722 21.8622 94.884 22.2313 95.3039 22.6933C95.7238 23.1552 96.0425 23.6998 96.2395 24.2922C96.4366 24.8845 96.5077 25.5115 96.4482 26.133C96.5088 26.755 96.4386 27.3829 96.242 27.9762C96.0455 28.5695 95.727 29.1151 95.307 29.578C94.887 30.0408 94.3748 30.4107 93.8034 30.6639C93.2319 30.917 92.6138 31.0477 91.9888 31.0477C91.3638 31.0477 90.7457 30.917 90.1743 30.6639C89.6028 30.4107 89.0906 30.0408 88.6706 29.578C88.2506 29.1151 87.9321 28.5695 87.7356 27.9762C87.5391 27.3829 87.4688 26.755 87.5294 26.133ZM94.5287 26.133C94.5287 24.0832 93.6079 22.8845 91.9919 22.8845C90.3697 22.8845 89.4572 24.0832 89.4572 26.133C89.4572 28.1991 90.3698 29.3886 91.9919 29.3886C93.6079 29.3886 94.5287 28.1909 94.5287 26.133H94.5287Z" fill="black"/>
<path d="M108.303 30.8653H106.367L104.413 23.9009H104.265L102.319 30.8653H100.401L97.7949 21.4092H99.6878L101.382 28.6248H101.521L103.465 21.4092H105.256L107.2 28.6248H107.347L109.033 21.4092H110.899L108.303 30.8653Z" fill="black"/>
<path d="M113.092 21.4091H114.888V22.9113H115.028C115.264 22.3718 115.663 21.9195 116.169 21.6175C116.675 21.3155 117.262 21.1789 117.85 21.2266C118.31 21.192 118.772 21.2614 119.201 21.4296C119.631 21.5978 120.017 21.8605 120.332 22.1983C120.646 22.536 120.88 22.9402 121.017 23.3808C121.154 23.8215 121.19 24.2872 121.123 24.7437V30.8652H119.256V25.2123C119.256 23.6927 118.596 22.937 117.216 22.937C116.904 22.9224 116.592 22.9756 116.302 23.0928C116.012 23.2101 115.751 23.3886 115.536 23.6162C115.322 23.8438 115.159 24.1151 115.059 24.4115C114.959 24.7079 114.925 25.0223 114.958 25.3333V30.8653H113.092L113.092 21.4091Z" fill="black"/>
<path d="M124.096 17.7178H125.962V30.8653H124.096V17.7178Z" fill="black"/>
<path d="M128.557 26.1331C128.498 25.5117 128.569 24.8846 128.766 24.2923C128.963 23.6999 129.282 23.1553 129.702 22.6933C130.122 22.2313 130.634 21.8622 131.204 21.6096C131.775 21.357 132.393 21.2266 133.017 21.2266C133.641 21.2266 134.259 21.357 134.83 21.6096C135.401 21.8622 135.913 22.2313 136.332 22.6933C136.752 23.1553 137.071 23.6999 137.268 24.2923C137.465 24.8846 137.536 25.5117 137.477 26.1331C137.538 26.7552 137.467 27.3831 137.271 27.9764C137.074 28.5697 136.755 29.1153 136.335 29.5782C135.915 30.041 135.403 30.4109 134.832 30.664C134.26 30.9171 133.642 31.0479 133.017 31.0479C132.392 31.0479 131.774 30.9171 131.202 30.664C130.631 30.4109 130.119 30.041 129.699 29.5782C129.279 29.1153 128.96 28.5697 128.764 27.9764C128.567 27.3831 128.497 26.7552 128.557 26.1331ZM135.556 26.1331C135.556 24.0834 134.636 22.8847 133.02 22.8847C131.398 22.8847 130.485 24.0834 130.485 26.1332C130.485 28.1993 131.398 29.3888 133.02 29.3888C134.636 29.3887 135.556 28.1911 135.556 26.1331H135.556Z" fill="black"/>
<path d="M139.44 28.191C139.44 26.4888 140.707 25.5076 142.957 25.3681L145.518 25.2204V24.4042C145.518 23.4055 144.858 22.8415 143.583 22.8415C142.541 22.8415 141.819 23.224 141.612 23.8926H139.805C139.996 22.2684 141.524 21.2266 143.669 21.2266C146.039 21.2266 147.376 22.4068 147.376 24.4042V30.8652H145.58V29.5363H145.432C145.133 30.013 144.712 30.4016 144.213 30.6625C143.714 30.9233 143.154 31.047 142.592 31.021C142.195 31.0623 141.794 31.02 141.414 30.8967C141.035 30.7734 140.685 30.572 140.388 30.3054C140.091 30.0387 139.853 29.7128 139.69 29.3486C139.527 28.9845 139.442 28.5901 139.44 28.191ZM145.518 27.383V26.5924L143.209 26.7401C141.907 26.8272 141.316 27.2702 141.316 28.1038C141.316 28.9549 142.055 29.4502 143.07 29.4502C143.367 29.4803 143.668 29.4502 143.953 29.3618C144.239 29.2735 144.504 29.1285 144.732 28.9357C144.961 28.7428 145.148 28.5059 145.283 28.2392C145.418 27.9725 145.498 27.6813 145.518 27.383Z" fill="black"/>
<path d="M149.83 26.1332C149.83 23.1452 151.366 21.2523 153.755 21.2523C154.346 21.2251 154.932 21.3666 155.446 21.6604C155.959 21.9542 156.379 22.3881 156.655 22.9113H156.794V17.7178H158.66V30.8653H156.872V29.3713H156.724C156.427 29.8911 155.993 30.3195 155.47 30.6103C154.946 30.9012 154.353 31.0432 153.755 31.0212C151.349 31.0213 149.83 29.1284 149.83 26.1332ZM151.757 26.1332C151.757 28.1389 152.703 29.3457 154.284 29.3457C155.857 29.3457 156.829 28.1214 156.829 26.1414C156.829 24.1706 155.847 22.9288 154.284 22.9288C152.713 22.9288 151.757 24.1439 151.757 26.1332H151.757Z" fill="black"/>
<path d="M166.382 26.133C166.322 25.5115 166.394 24.8845 166.591 24.2922C166.788 23.6998 167.106 23.1552 167.526 22.6933C167.946 22.2313 168.458 21.8622 169.029 21.6096C169.6 21.357 170.217 21.2266 170.841 21.2266C171.466 21.2266 172.083 21.357 172.654 21.6096C173.225 21.8622 173.737 22.2313 174.156 22.6933C174.576 23.1552 174.895 23.6998 175.092 24.2922C175.289 24.8845 175.36 25.5115 175.301 26.133C175.361 26.755 175.291 27.3829 175.095 27.9762C174.898 28.5695 174.58 29.1151 174.16 29.578C173.74 30.0408 173.227 30.4107 172.656 30.6639C172.084 30.917 171.466 31.0477 170.841 31.0477C170.216 31.0477 169.598 30.917 169.027 30.6639C168.455 30.4107 167.943 30.0408 167.523 29.578C167.103 29.1151 166.785 28.5695 166.588 27.9762C166.392 27.3829 166.321 26.755 166.382 26.133ZM173.381 26.133C173.381 24.0832 172.46 22.8845 170.844 22.8845C169.222 22.8845 168.31 24.0832 168.31 26.133C168.31 28.1991 169.222 29.3886 170.844 29.3886C172.46 29.3886 173.381 28.1909 173.381 26.133Z" fill="black"/>
<path d="M177.804 21.4091H179.601V22.9113H179.74C179.977 22.3718 180.376 21.9195 180.882 21.6175C181.387 21.3155 181.975 21.1789 182.562 21.2266C183.022 21.192 183.484 21.2614 183.914 21.4296C184.343 21.5978 184.73 21.8605 185.044 22.1983C185.358 22.536 185.593 22.9402 185.73 23.3808C185.867 23.8215 185.903 24.2872 185.835 24.7437V30.8652H183.969V25.2123C183.969 23.6927 183.309 22.937 181.928 22.937C181.616 22.9224 181.304 22.9756 181.014 23.0928C180.724 23.2101 180.463 23.3886 180.249 23.6162C180.034 23.8438 179.871 24.1151 179.772 24.4115C179.672 24.7079 179.637 25.0223 179.67 25.3333V30.8653H177.804V21.4091Z" fill="black"/>
<path d="M196.38 19.0547V21.452H198.429V23.024H196.38V27.8864C196.38 28.8769 196.788 29.3106 197.717 29.3106C197.955 29.3099 198.193 29.2955 198.429 29.2676V30.8221C198.094 30.882 197.754 30.9139 197.414 30.9174C195.338 30.9174 194.512 30.1873 194.512 28.3642V23.0239H193.011V21.452H194.512V19.0547H196.38Z" fill="black"/>
<path d="M200.98 17.7178H202.83V22.9288H202.977C203.226 22.3842 203.635 21.9294 204.151 21.6263C204.667 21.3231 205.264 21.1865 205.861 21.2349C206.318 21.21 206.776 21.2864 207.201 21.4587C207.626 21.631 208.007 21.8949 208.318 22.2316C208.629 22.5683 208.862 22.9695 209 23.4066C209.138 23.8437 209.178 24.3059 209.117 24.7602V30.8653H207.249V25.2205C207.249 23.7101 206.546 22.9452 205.227 22.9452C204.906 22.9189 204.584 22.963 204.282 23.0744C203.98 23.1858 203.706 23.3619 203.479 23.5902C203.252 23.8185 203.078 24.0937 202.969 24.3964C202.86 24.6991 202.818 25.022 202.846 25.3426V30.8653H200.98L200.98 17.7178Z" fill="black"/>
<path d="M219.998 28.3122C219.745 29.1764 219.195 29.924 218.446 30.4241C217.697 30.9242 216.796 31.145 215.901 31.0479C215.278 31.0643 214.659 30.945 214.086 30.6982C213.514 30.4514 213.002 30.083 212.587 29.6186C212.171 29.1542 211.862 28.605 211.68 28.0089C211.497 27.4129 211.447 26.7844 211.533 26.1671C211.45 25.5478 211.501 24.9179 211.682 24.3201C211.864 23.7223 212.172 23.1705 212.585 22.702C212.999 22.2336 213.508 21.8594 214.078 21.6049C214.649 21.3504 215.268 21.2214 215.892 21.2267C218.524 21.2267 220.111 23.0243 220.111 25.9937V26.6449H213.434V26.7495C213.404 27.0965 213.448 27.4458 213.562 27.775C213.675 28.1041 213.856 28.4059 214.094 28.661C214.331 28.9161 214.618 29.1187 214.939 29.2561C215.259 29.3934 215.604 29.4624 215.952 29.4585C216.398 29.5121 216.851 29.4317 217.251 29.2276C217.652 29.0234 217.983 28.7048 218.202 28.3121L219.998 28.3122ZM213.434 25.2647H218.21C218.233 24.9473 218.19 24.6286 218.083 24.3288C217.976 24.0291 217.808 23.7551 217.588 23.5244C217.369 23.2937 217.104 23.1114 216.81 22.9893C216.516 22.8671 216.2 22.8078 215.882 22.8151C215.559 22.811 215.239 22.8716 214.94 22.9933C214.641 23.115 214.37 23.2953 214.141 23.5236C213.913 23.7519 213.733 24.0235 213.611 24.3226C213.49 24.6216 213.429 24.9419 213.434 25.2647H213.434Z" fill="black"/>
</g>
<defs>
<clipPath id="clip0_567_1859">
<rect width="251.295" height="84" fill="white"/>
</clipPath>
</defs>
</svg>
