<svg width="284" height="84" viewBox="0 0 284 84" fill="none" xmlns="http://www.w3.org/2000/svg">
<g clip-path="url(#clip0_567_1860)">
<path fill-rule="evenodd" clip-rule="evenodd" d="M273.491 84H10.9985C5.20937 84 0.494629 79.2658 0.494629 73.5V10.5C0.494629 4.71322 5.20937 0 10.9985 0H273.491C279.275 0 283.995 4.71322 283.995 10.5V73.5C283.995 79.2658 279.275 84 273.491 84Z" fill="white"/>
<path fill-rule="evenodd" clip-rule="evenodd" d="M273.491 1.68105C278.346 1.68105 282.32 5.64539 282.32 10.5V73.5C282.32 78.3546 278.372 82.319 273.491 82.319H10.9985C6.14293 82.319 2.16878 78.3546 2.16878 73.5V10.5C2.16878 5.64539 6.11686 1.68105 10.9985 1.68105H273.491ZM273.491 0H10.9985C5.20937 0 0.494629 4.73416 0.494629 10.5V73.5C0.494629 79.2868 5.20937 84 10.9985 84H273.491C279.275 84 283.995 79.2868 283.995 73.5V10.5C283.995 4.73416 279.275 0 273.491 0Z" fill="#A6A6A6"/>
<path d="M149.843 27.7873C147.949 27.7873 146.354 27.1222 145.091 25.813C143.84 24.5404 143.141 22.7861 143.172 20.995C143.172 19.0836 143.819 17.4654 145.091 16.1823C146.348 14.8731 147.944 14.208 149.837 14.208C151.71 14.208 153.306 14.8731 154.589 16.1823C155.861 17.5073 156.508 19.1255 156.508 20.995C156.487 22.9117 155.84 24.53 154.589 25.8078C153.332 27.1275 151.736 27.7873 149.843 27.7873ZM93.5112 27.7873C91.6598 27.7873 90.0534 27.1327 88.7391 25.8392C87.4353 24.5509 86.7729 22.9222 86.7729 21.0003C86.7729 19.0783 87.4353 17.4497 88.7391 16.1614C90.0274 14.8679 91.6337 14.2132 93.5112 14.2132C94.4291 14.2132 95.321 14.3965 96.1763 14.7684C97.016 15.1297 97.6992 15.622 98.2051 16.2242L98.3303 16.3761L96.9169 17.7691L96.7709 17.5963C95.9729 16.6432 94.9037 16.1771 93.4904 16.1771C92.2282 16.1771 91.1278 16.6275 90.2203 17.5177C89.3076 18.4132 88.8435 19.5863 88.8435 21.0055C88.8435 22.4247 89.3076 23.5978 90.2203 24.4933C91.1278 25.3836 92.2282 25.8339 93.4904 25.8339C94.8359 25.8339 95.9677 25.3836 96.8491 24.4933C97.3706 23.9696 97.694 23.2364 97.8087 22.3095H93.2765V20.3509H99.7541L99.7801 20.529C99.8271 20.8589 99.874 21.1993 99.874 21.5135C99.874 23.3202 99.3316 24.7813 98.2572 25.8601C97.0368 27.1379 95.4409 27.7873 93.5112 27.7873ZM168.409 27.5098H166.412L160.294 17.6801L160.346 19.4502V27.5045H158.349V14.4908H160.628L160.691 14.5903L166.443 23.8492L166.391 22.0843V14.4908H168.409V27.5098ZM134.833 27.5098H132.809V16.4494H129.299V14.4908H138.338V16.4494H134.828V27.5098H134.833ZM127.651 27.5098H125.633V14.4908H127.651V27.5098ZM116.308 27.5098H114.289V16.4494H110.779V14.4908H119.818V16.4494H116.308V27.5098ZM109.502 27.4888H101.762V14.4908H109.502V16.4494H103.786V20.021H108.944V21.9586H103.786V25.5302H109.502V27.4888ZM146.573 24.4671C147.475 25.3731 148.57 25.8287 149.843 25.8287C151.152 25.8287 152.221 25.3836 153.113 24.4671C153.999 23.5768 154.448 22.409 154.448 21.0003C154.448 19.5915 153.999 18.4185 153.118 17.5334C152.216 16.6275 151.115 16.1718 149.848 16.1718C148.539 16.1718 147.47 16.617 146.583 17.5334C145.696 18.4237 145.248 19.5915 145.248 21.0003C145.248 22.409 145.691 23.5821 146.573 24.4671Z" fill="black"/>
<path fill-rule="evenodd" clip-rule="evenodd" d="M142.986 45.6863C138.057 45.6863 134.062 49.4411 134.062 54.6204C134.062 59.7526 138.083 63.5546 142.986 63.5546C147.914 63.5546 151.909 59.7736 151.909 54.6204C151.909 49.4411 147.914 45.6863 142.986 45.6863ZM142.986 60.0145C140.289 60.0145 137.968 57.7731 137.968 54.5995C137.968 51.3788 140.295 49.1845 142.986 49.1845C145.682 49.1845 148.003 51.3788 148.003 54.5995C148.008 57.794 145.682 60.0145 142.986 60.0145ZM123.517 45.6863C118.588 45.6863 114.593 49.4411 114.593 54.6204C114.593 59.7526 118.614 63.5546 123.517 63.5546C128.445 63.5546 132.44 59.7736 132.44 54.6204C132.44 49.4411 128.44 45.6863 123.517 45.6863ZM123.517 60.0145C120.82 60.0145 118.499 57.7731 118.499 54.5995C118.499 51.3788 120.825 49.1845 123.517 49.1845C126.213 49.1845 128.534 51.3788 128.534 54.5995C128.534 57.794 126.213 60.0145 123.517 60.0145ZM100.35 48.4147V52.1958H109.388C109.112 54.3167 108.413 55.8825 107.343 56.9561C106.019 58.2863 103.974 59.7317 100.37 59.7317C94.816 59.7317 90.4716 55.2279 90.4716 49.6506C90.4716 44.0733 94.816 39.5696 100.37 39.5696C103.369 39.5696 105.555 40.7584 107.177 42.2771L109.847 39.5958C107.594 37.4277 104.595 35.7676 100.391 35.7676C92.7716 35.7676 86.3774 41.9995 86.3774 49.6297C86.3774 57.2808 92.7663 63.4918 100.391 63.4918C104.506 63.4918 107.594 62.1406 110.035 59.5955C112.522 57.0975 113.31 53.5731 113.31 50.7294C113.31 49.8444 113.242 49.0484 113.101 48.3728H100.344C100.35 48.3676 100.35 48.4147 100.35 48.4147ZM195.109 51.3579C194.363 49.3521 192.11 45.6653 187.489 45.6653C182.91 45.6653 179.103 49.284 179.103 54.5995C179.103 59.6165 182.868 63.5337 187.932 63.5337C192 63.5337 194.368 61.0357 195.343 59.5693L192.324 57.5374C191.322 59.0299 189.93 60.0092 187.953 60.0092C185.956 60.0092 184.558 59.098 183.63 57.3017L195.526 52.3529C195.526 52.3581 195.109 51.3579 195.109 51.3579ZM182.978 54.3429C182.884 50.8918 185.648 49.1374 187.625 49.1374C189.184 49.1374 190.483 49.9072 190.926 51.0279L182.978 54.3429ZM173.313 62.9995H177.22V36.7521H173.313V62.9995ZM166.898 47.6711H166.758C165.876 46.6184 164.202 45.6653 162.064 45.6653C157.625 45.6653 153.537 49.5878 153.537 54.6257C153.537 59.6426 157.605 63.518 162.064 63.518C164.176 63.518 165.876 62.5596 166.758 61.486H166.898V62.7691C166.898 66.1783 165.084 68.0165 162.158 68.0165C159.764 68.0165 158.277 66.2883 157.672 64.8429L154.277 66.2673C155.252 68.6239 157.855 71.5409 162.152 71.5409C166.732 71.5409 170.612 68.8334 170.612 62.2297V46.1995H166.919V47.6711C166.925 47.6711 166.898 47.6711 166.898 47.6711ZM162.413 60.0145C159.717 60.0145 157.464 57.7521 157.464 54.6257C157.464 51.4731 159.717 49.1898 162.413 49.1898C165.084 49.1898 167.154 51.4992 167.154 54.6257C167.18 57.7521 165.089 60.0145 162.413 60.0145ZM213.399 36.7521H204.058V62.9995H207.965V53.0598H213.404C217.728 53.0598 221.979 49.9125 221.979 44.9165C221.979 39.9204 217.744 36.7521 213.399 36.7521ZM213.514 49.394H207.96V40.3865H213.514C216.44 40.3865 218.093 42.8112 218.093 44.8903C218.093 46.9484 216.419 49.394 213.514 49.394ZM237.635 45.6391C234.798 45.6391 231.872 46.9012 230.662 49.6506L234.125 51.096C234.871 49.6506 236.238 49.1584 237.682 49.1584C239.706 49.1584 241.75 50.3733 241.797 52.5414V52.8189C241.098 52.4209 239.565 51.8135 237.729 51.8135C233.99 51.8135 230.198 53.8663 230.198 57.7155C230.198 61.2399 233.265 63.5022 236.681 63.5022C239.304 63.5022 240.749 62.3135 241.651 60.9362H241.792V62.9681H245.558V52.9132C245.558 48.2314 242.095 45.6391 237.635 45.6391ZM237.145 60.0145C235.867 60.0145 234.078 59.386 234.078 57.7731C234.078 55.7411 236.311 54.9713 238.214 54.9713C239.935 54.9713 240.749 55.3431 241.771 55.8564C241.49 58.213 239.508 59.9935 237.145 60.0145ZM259.295 46.1995L254.81 57.5845H254.669L250.022 46.1995H245.818L252.791 62.1145L248.817 70.9596H252.885L263.613 46.1995H259.295ZM224.133 62.9995H228.039V36.7521H224.133V62.9995Z" fill="black"/>
<path fill-rule="evenodd" clip-rule="evenodd" d="M22.3158 15.8206C21.7108 16.4752 21.3613 17.4755 21.3613 18.7847V65.2203C21.3613 66.5296 21.7108 67.5298 22.3366 68.1582L22.4983 68.2996L48.4085 42.2827V41.7014L22.4774 15.6792L22.3158 15.8206Z" fill="url(#paint0_linear_567_1860)"/>
<path fill-rule="evenodd" clip-rule="evenodd" d="M57.0307 50.9811L48.3887 42.3036V41.6961L57.0307 33.0186L57.2184 33.1338L67.4407 38.9677C70.3666 40.6225 70.3666 43.3562 67.4407 45.032L57.2184 50.8659L57.0307 50.9811Z" fill="url(#paint1_linear_567_1860)"/>
<path fill-rule="evenodd" clip-rule="evenodd" d="M57.2166 50.8661L48.3868 42L22.3149 68.1793C23.2694 69.2057 24.8705 69.3209 26.6594 68.3207L57.2166 50.8661Z" fill="url(#paint2_linear_567_1860)"/>
<g filter="url(#filter0_d_567_1860)">
<path fill-rule="evenodd" clip-rule="evenodd" d="M57.2166 33.1336L26.6594 15.7052C24.8705 14.6788 23.2641 14.8202 22.3149 15.8466L48.3868 41.9997L57.2166 33.1336Z" fill="url(#paint3_linear_567_1860)"/>
<path d="M48.3867 41.2913L23.0472 15.873C23.8175 15.355 24.9894 15.3235 26.4106 16.1389L26.4117 16.1395L56.4009 33.2441L48.3867 41.2913Z" stroke="black"/>
</g>
<path opacity="0.2" fill-rule="evenodd" clip-rule="evenodd" d="M57.0306 50.6777L26.6819 67.9909C24.9869 68.9702 23.4744 68.9021 22.4991 68.0118L22.3374 68.1742L22.4991 68.3156C23.4744 69.2006 24.9869 69.2739 26.6819 68.2946L57.2392 50.8663L57.0306 50.6777Z" fill="white"/>
<path opacity="0.12" fill-rule="evenodd" clip-rule="evenodd" d="M67.44 44.7284L57.0039 50.6776L57.1917 50.8661L67.4139 45.0322C68.8794 44.1943 69.5991 43.0945 69.5991 42C69.5105 43.0055 68.7647 43.9586 67.44 44.7284Z" fill="white"/>
<path opacity="0.25" fill-rule="evenodd" clip-rule="evenodd" d="M26.6602 16.0088L67.4396 39.2712C68.7643 40.02 69.5101 40.9993 69.6249 41.9996C69.6249 40.9051 68.9051 39.8053 67.4396 38.9674L26.6602 15.7051C23.7343 14.024 21.3613 15.4275 21.3613 18.7844V19.0881C21.3613 15.726 23.7343 14.3487 26.6602 16.0088Z" fill="black"/>
</g>
<defs>
<filter id="filter0_d_567_1860" x="18.3149" y="15.0024" width="42.9019" height="34.9971" filterUnits="userSpaceOnUse" color-interpolation-filters="sRGB">
<feFlood flood-opacity="0" result="BackgroundImageFix"/>
<feColorMatrix in="SourceAlpha" type="matrix" values="0 0 0 0 0 0 0 0 0 0 0 0 0 0 0 0 0 0 127 0" result="hardAlpha"/>
<feOffset dy="4"/>
<feGaussianBlur stdDeviation="2"/>
<feComposite in2="hardAlpha" operator="out"/>
<feColorMatrix type="matrix" values="0 0 0 0 0 0 0 0 0 0 0 0 0 0 0 0 0 0 0.25 0"/>
<feBlend mode="normal" in2="BackgroundImageFix" result="effect1_dropShadow_567_1860"/>
<feBlend mode="normal" in="SourceGraphic" in2="effect1_dropShadow_567_1860" result="shape"/>
</filter>
<linearGradient id="paint0_linear_567_1860" x1="46.0844" y1="18.2837" x2="4.55816" y2="29.303" gradientUnits="userSpaceOnUse">
<stop stop-color="#00A0FF"/>
<stop offset="0.00657" stop-color="#00A1FF"/>
<stop offset="0.2601" stop-color="#00BEFF"/>
<stop offset="0.5122" stop-color="#00D2FF"/>
<stop offset="0.7604" stop-color="#00DFFF"/>
<stop offset="1" stop-color="#00E3FF"/>
</linearGradient>
<linearGradient id="paint1_linear_567_1860" x1="71.2563" y1="41.9999" x2="20.6511" y2="41.9999" gradientUnits="userSpaceOnUse">
<stop stop-color="#FFE000"/>
<stop offset="0.4087" stop-color="#FFBD00"/>
<stop offset="0.7754" stop-color="#FFA500"/>
<stop offset="1" stop-color="#FF9C00"/>
</linearGradient>
<linearGradient id="paint2_linear_567_1860" x1="52.4153" y1="46.8244" x2="18.8935" y2="103.013" gradientUnits="userSpaceOnUse">
<stop stop-color="#FF3A44"/>
<stop offset="1" stop-color="#C31162"/>
</linearGradient>
<linearGradient id="paint3_linear_567_1860" x1="15.7498" y1="0.375187" x2="30.7052" y2="25.47" gradientUnits="userSpaceOnUse">
<stop stop-color="#32A071"/>
<stop offset="0.0685" stop-color="#2DA771"/>
<stop offset="0.4762" stop-color="#15CF74"/>
<stop offset="0.8009" stop-color="#06E775"/>
<stop offset="1" stop-color="#00F076"/>
</linearGradient>
<clipPath id="clip0_567_1860">
<rect width="283.5" height="84" fill="white" transform="translate(0.494629)"/>
</clipPath>
</defs>
</svg>
