<svg width="28" height="35" viewBox="0 0 28 35" fill="none" xmlns="http://www.w3.org/2000/svg">
<path d="M4.37047 29.5021C6.78421 29.5021 8.74094 24.1204 8.74094 17.4818C8.74094 10.8431 6.78421 5.46143 4.37047 5.46143C1.95673 5.46143 0 10.8431 0 17.4818C0 24.1204 1.95673 29.5021 4.37047 29.5021Z" fill="black"/>
<path d="M13.8515 34.9637C17.3614 34.9637 20.2068 27.1368 20.2068 17.4819C20.2068 7.8269 17.3614 0 13.8515 0C10.3415 0 7.49609 7.8269 7.49609 17.4819C7.49609 27.1368 10.3415 34.9637 13.8515 34.9637Z" fill="black"/>
<path d="M23.3314 29.5021C25.7451 29.5021 27.7019 24.1204 27.7019 17.4818C27.7019 10.8431 25.7451 5.46143 23.3314 5.46143C20.9177 5.46143 18.9609 10.8431 18.9609 17.4818C18.9609 24.1204 20.9177 29.5021 23.3314 29.5021Z" fill="black"/>
<path d="M9.79474 19.0846C10.5233 19.0846 11.1139 18.494 11.1139 17.7654C11.1139 17.0369 10.5233 16.4463 9.79474 16.4463C9.06619 16.4463 8.47559 17.0369 8.47559 17.7654C8.47559 18.494 9.06619 19.0846 9.79474 19.0846Z" fill="black"/>
<path d="M17.5623 19.0846C18.2909 19.0846 18.8815 18.494 18.8815 17.7654C18.8815 17.0369 18.2909 16.4463 17.5623 16.4463C16.8338 16.4463 16.2432 17.0369 16.2432 17.7654C16.2432 18.494 16.8338 19.0846 17.5623 19.0846Z" fill="black"/>
</svg>
