<svg width="231" height="54" viewBox="0 0 231 54" fill="none" xmlns="http://www.w3.org/2000/svg">
<g clip-path="url(#clip0_567_1869)">
<path d="M6.68595 45.1324C10.3785 45.1324 13.3719 36.8995 13.3719 26.7437C13.3719 16.5879 10.3785 8.35498 6.68595 8.35498C2.9934 8.35498 0 16.5879 0 26.7437C0 36.8995 2.9934 45.1324 6.68595 45.1324Z" fill="white"/>
<path d="M21.1892 53.4876C26.5588 53.4876 30.9117 41.514 30.9117 26.7438C30.9117 11.9736 26.5588 0 21.1892 0C15.8197 0 11.4668 11.9736 11.4668 26.7438C11.4668 41.514 15.8197 53.4876 21.1892 53.4876Z" fill="white"/>
<path d="M35.6928 45.1324C39.3853 45.1324 42.3787 36.8995 42.3787 26.7437C42.3787 16.5879 39.3853 8.35498 35.6928 8.35498C32.0002 8.35498 29.0068 16.5879 29.0068 26.7437C29.0068 36.8995 32.0002 45.1324 35.6928 45.1324Z" fill="white"/>
<path d="M14.9848 29.1958C16.0994 29.1958 17.0029 28.2922 17.0029 27.1777C17.0029 26.0632 16.0994 25.1597 14.9848 25.1597C13.8703 25.1597 12.9668 26.0632 12.9668 27.1777C12.9668 28.2922 13.8703 29.1958 14.9848 29.1958Z" fill="white"/>
<path d="M26.8667 29.1958C27.9812 29.1958 28.8847 28.2922 28.8847 27.1777C28.8847 26.0632 27.9812 25.1597 26.8667 25.1597C25.7521 25.1597 24.8486 26.0632 24.8486 27.1777C24.8486 28.2922 25.7521 29.1958 26.8667 29.1958Z" fill="white"/>
<path d="M84.3147 8.41211H88.86C89.0203 8.41211 89.1618 8.50641 89.2278 8.65729L99.3557 32.8927C99.4878 33.2227 99.9498 33.2227 100.091 32.8927L110.172 8.65729C110.238 8.50641 110.38 8.41211 110.54 8.41211H115.085C115.302 8.41211 115.481 8.59128 115.481 8.80817V41.1346C115.481 41.3515 115.302 41.5307 115.085 41.5307H110.672C110.455 41.5307 110.276 41.3515 110.276 41.1346V21.7463C110.276 21.3031 109.663 21.1899 109.512 21.6048L101.864 41.2855C101.808 41.4364 101.657 41.5401 101.496 41.5401H97.9223C97.762 41.5401 97.6112 41.4364 97.5546 41.2855L89.9068 21.3879C89.7464 20.973 89.1429 21.0862 89.1429 21.5294V41.1346C89.1429 41.3515 88.9637 41.5307 88.7469 41.5307H84.3336C84.1167 41.5307 83.9375 41.3515 83.9375 41.1346V8.80817C83.9375 8.59128 84.1167 8.41211 84.3336 8.41211H84.3147Z" fill="white"/>
<path d="M119.743 30.5066C119.743 24.0281 124.1 18.917 131.38 18.917C138.66 18.917 143.017 24.0281 143.017 30.5066C143.017 36.9851 138.66 42.0962 131.38 42.0962C124.1 42.0962 119.743 36.9851 119.743 30.5066ZM137.868 30.5066C137.868 26.4799 135.548 23.5095 131.389 23.5095C127.231 23.5095 124.901 26.4894 124.901 30.5066C124.901 34.5238 127.221 37.5132 131.389 37.5132C135.557 37.5132 137.868 34.5333 137.868 30.5066Z" fill="white"/>
<path d="M145.865 30.5066C145.865 24.0281 150.222 18.917 157.502 18.917C164.782 18.917 169.139 24.0281 169.139 30.5066C169.139 36.9851 164.782 42.0962 157.502 42.0962C150.222 42.0962 145.865 36.9851 145.865 30.5066ZM163.99 30.5066C163.99 26.4799 161.67 23.5095 157.511 23.5095C153.353 23.5095 151.024 26.4894 151.024 30.5066C151.024 34.5238 153.343 37.5132 157.511 37.5132C161.68 37.5132 163.99 34.5333 163.99 30.5066Z" fill="white"/>
<path d="M194.562 8.80817V41.1346C194.562 41.3515 194.383 41.5307 194.166 41.5307H189.847C189.63 41.5307 189.451 41.3515 189.451 41.1346V38.5507C188.074 40.7762 185.047 42.0965 182.35 42.0965C175.249 42.0965 171.515 36.9853 171.515 30.5069C171.515 24.0284 175.626 18.9173 182.491 18.9173C185 18.9173 187.291 19.8886 188.772 21.5483C189.007 21.8217 189.451 21.652 189.451 21.2842V8.80817C189.451 8.59128 189.63 8.41211 189.847 8.41211H194.166C194.383 8.41211 194.562 8.59128 194.562 8.80817ZM189.639 30.5069C189.639 27.1875 187.998 24.3018 184.622 23.6417C180.304 22.8025 176.465 26.5934 176.682 30.9878C176.871 34.7598 179.247 37.5134 183.104 37.5134C187.508 37.5134 189.63 34.2978 189.63 30.5069H189.639Z" fill="white"/>
<path d="M200.635 8.21387H204.954C205.171 8.21387 205.35 8.39304 205.35 8.60993V41.1344C205.35 41.3513 205.171 41.5304 204.954 41.5304H200.635C200.418 41.5304 200.239 41.3513 200.239 41.1344V8.60993C200.239 8.39304 200.418 8.21387 200.635 8.21387Z" fill="white"/>
<path d="M230.491 32.2133H214.922C214.686 32.2133 214.497 32.4208 214.516 32.6565C214.827 35.8722 217.062 37.6073 220.636 37.6073C223.088 37.6073 224.578 36.8718 225.446 35.3064C225.512 35.1838 225.644 35.0989 225.785 35.0989H230.264C230.519 35.0989 230.726 35.3441 230.66 35.5893C229.755 39.4462 225.719 42.1055 220.627 42.1055C213.667 42.1055 209.367 37.6545 209.367 30.5159C209.367 23.3773 213.724 18.9263 220.438 18.9263C226.728 18.9263 230.99 23.1887 230.99 29.3843C230.99 30.1858 230.953 30.8365 230.877 31.8455C230.858 32.053 230.689 32.2227 230.481 32.2227L230.491 32.2133ZM225.512 28.2904C225.738 28.2904 225.936 28.0829 225.926 27.8566C225.719 24.7258 223.758 22.9906 220.363 22.9906C216.968 22.9906 214.752 24.9615 214.516 27.8566C214.497 28.0923 214.695 28.2998 214.931 28.2998H225.521L225.512 28.2904Z" fill="white"/>
</g>
<defs>
<clipPath id="clip0_567_1869">
<rect width="231" height="53.4876" fill="white"/>
</clipPath>
</defs>
</svg>
