<svg width="151" height="35" viewBox="0 0 151 35" fill="none" xmlns="http://www.w3.org/2000/svg">
<g clip-path="url(#clip0_556_1347)">
<path d="M4.37047 29.5021C6.78421 29.5021 8.74094 24.1204 8.74094 17.4818C8.74094 10.8431 6.78421 5.46143 4.37047 5.46143C1.95673 5.46143 0 10.8431 0 17.4818C0 24.1204 1.95673 29.5021 4.37047 29.5021Z" fill="black"/>
<path d="M13.8515 34.9637C17.3614 34.9637 20.2068 27.1368 20.2068 17.4819C20.2068 7.8269 17.3614 0 13.8515 0C10.3415 0 7.49609 7.8269 7.49609 17.4819C7.49609 27.1368 10.3415 34.9637 13.8515 34.9637Z" fill="black"/>
<path d="M23.3314 29.5021C25.7451 29.5021 27.7019 24.1204 27.7019 17.4818C27.7019 10.8431 25.7451 5.46143 23.3314 5.46143C20.9177 5.46143 18.9609 10.8431 18.9609 17.4818C18.9609 24.1204 20.9177 29.5021 23.3314 29.5021Z" fill="black"/>
<path d="M9.79474 19.0846C10.5233 19.0846 11.1139 18.494 11.1139 17.7654C11.1139 17.0369 10.5233 16.4463 9.79474 16.4463C9.06619 16.4463 8.47559 17.0369 8.47559 17.7654C8.47559 18.494 9.06619 19.0846 9.79474 19.0846Z" fill="black"/>
<path d="M17.5623 19.0846C18.2909 19.0846 18.8815 18.494 18.8815 17.7654C18.8815 17.0369 18.2909 16.4463 17.5623 16.4463C16.8338 16.4463 16.2432 17.0369 16.2432 17.7654C16.2432 18.494 16.8338 19.0846 17.5623 19.0846Z" fill="black"/>
<path d="M55.1147 5.49854H58.0859C58.1907 5.49854 58.2832 5.56018 58.3263 5.65881L64.9467 21.501C65.033 21.7167 65.3351 21.7167 65.4276 21.501L72.0172 5.65881C72.0603 5.56018 72.1528 5.49854 72.2576 5.49854H75.2288C75.3705 5.49854 75.4876 5.61566 75.4876 5.75743V26.8886C75.4876 27.0303 75.3705 27.1475 75.2288 27.1475H72.3439C72.2021 27.1475 72.085 27.0303 72.085 26.8886V14.2148C72.085 13.9251 71.6843 13.8511 71.5857 14.1224L66.5864 26.9872C66.5495 27.0858 66.4508 27.1536 66.346 27.1536H64.0098C63.905 27.1536 63.8064 27.0858 63.7694 26.9872L58.7701 13.9806C58.6654 13.7093 58.2708 13.7833 58.2708 14.073V26.8886C58.2708 27.0303 58.1537 27.1475 58.0119 27.1475H55.1271C54.9853 27.1475 54.8682 27.0303 54.8682 26.8886V5.75743C54.8682 5.61566 54.9853 5.49854 55.1271 5.49854H55.1147Z" fill="black"/>
<path d="M78.2734 19.9414C78.2734 15.7065 81.1213 12.3655 85.8802 12.3655C90.639 12.3655 93.4869 15.7065 93.4869 19.9414C93.4869 24.1762 90.639 27.5173 85.8802 27.5173C81.1213 27.5173 78.2734 24.1762 78.2734 19.9414V19.9414ZM90.1212 19.9414C90.1212 17.3092 88.6048 15.3675 85.8863 15.3675C83.1679 15.3675 81.6453 17.3154 81.6453 19.9414C81.6453 22.5673 83.1617 24.5214 85.8863 24.5214C88.6109 24.5214 90.1212 22.5735 90.1212 19.9414Z" fill="black"/>
<path d="M95.3486 19.9414C95.3486 15.7065 98.1965 12.3655 102.955 12.3655C107.714 12.3655 110.562 15.7065 110.562 19.9414C110.562 24.1762 107.714 27.5173 102.955 27.5173C98.1965 27.5173 95.3486 24.1762 95.3486 19.9414ZM107.196 19.9414C107.196 17.3092 105.68 15.3675 102.962 15.3675C100.243 15.3675 98.7205 17.3154 98.7205 19.9414C98.7205 22.5673 100.237 24.5214 102.962 24.5214C105.686 24.5214 107.196 22.5735 107.196 19.9414Z" fill="black"/>
<path d="M127.182 5.75743V26.8886C127.182 27.0303 127.065 27.1475 126.923 27.1475H124.1C123.958 27.1475 123.841 27.0303 123.841 26.8886V25.1995C122.941 26.6543 120.962 27.5173 119.199 27.5173C114.557 27.5173 112.116 24.1763 112.116 19.9414C112.116 15.7066 114.804 12.3655 119.291 12.3655C120.931 12.3655 122.429 13.0005 123.397 14.0854C123.551 14.2641 123.841 14.1532 123.841 13.9128V5.75743C123.841 5.61566 123.958 5.49854 124.1 5.49854H126.923C127.065 5.49854 127.182 5.61566 127.182 5.75743V5.75743ZM123.964 19.9414C123.964 17.7716 122.891 15.8853 120.685 15.4538C117.861 14.9052 115.352 17.3833 115.494 20.2558C115.618 22.7215 117.171 24.5215 119.692 24.5215C122.571 24.5215 123.958 22.4195 123.958 19.9414H123.964Z" fill="black"/>
<path d="M131.151 5.36914H133.975C134.116 5.36914 134.234 5.48626 134.234 5.62804V26.8886C134.234 27.0304 134.116 27.1475 133.975 27.1475H131.151C131.01 27.1475 130.893 27.0304 130.893 26.8886V5.62804C130.893 5.48626 131.01 5.36914 131.151 5.36914Z" fill="black"/>
<path d="M150.667 21.0573H140.49C140.336 21.0573 140.213 21.1929 140.225 21.347C140.428 23.449 141.889 24.5832 144.226 24.5832C145.828 24.5832 146.802 24.1024 147.369 23.0792C147.413 22.999 147.499 22.9436 147.591 22.9436H150.519C150.686 22.9436 150.821 23.1038 150.778 23.2641C150.187 25.7853 147.548 27.5236 144.22 27.5236C139.67 27.5236 136.859 24.6141 136.859 19.9477C136.859 15.2814 139.707 12.3718 144.096 12.3718C148.208 12.3718 150.994 15.1581 150.994 19.208C150.994 19.732 150.969 20.1573 150.92 20.8169C150.908 20.9525 150.797 21.0634 150.661 21.0634L150.667 21.0573ZM147.413 18.4929C147.561 18.4929 147.69 18.3573 147.684 18.2094C147.548 16.1629 146.266 15.0286 144.047 15.0286C141.828 15.0286 140.379 16.317 140.225 18.2094C140.213 18.3635 140.342 18.4991 140.496 18.4991H147.419L147.413 18.4929Z" fill="black"/>
</g>
<defs>
<clipPath id="clip0_556_1347">
<rect width="151" height="34.9637" fill="white"/>
</clipPath>
</defs>
</svg>
