<svg width="97" height="23" viewBox="0 0 97 23" fill="none" xmlns="http://www.w3.org/2000/svg">
<path d="M1.11474 0.498535H4.08591C4.19071 0.498535 4.28317 0.560178 4.32632 0.658806L10.9467 16.501C11.033 16.7167 11.3351 16.7167 11.4276 16.501L18.0172 0.658806C18.0603 0.560178 18.1528 0.498535 18.2576 0.498535H21.2288C21.3705 0.498535 21.4876 0.615656 21.4876 0.757435V21.8886C21.4876 22.0303 21.3705 22.1475 21.2288 22.1475H18.3439C18.2021 22.1475 18.085 22.0303 18.085 21.8886V9.21482C18.085 8.92509 17.6843 8.85112 17.5857 9.12235L12.5864 21.9872C12.5495 22.0858 12.4508 22.1536 12.346 22.1536H10.0098C9.90498 22.1536 9.80635 22.0858 9.76937 21.9872L4.77014 8.98057C4.66535 8.70935 4.27084 8.78332 4.27084 9.07304V21.8886C4.27084 22.0303 4.15372 22.1475 4.01194 22.1475H1.12706C0.985284 22.1475 0.868164 22.0303 0.868164 21.8886V0.757435C0.868164 0.615656 0.985284 0.498535 1.12706 0.498535H1.11474Z" fill="black"/>
<path d="M24.2734 14.9414C24.2734 10.7065 27.1213 7.36548 31.8802 7.36548C36.639 7.36548 39.4869 10.7065 39.4869 14.9414C39.4869 19.1762 36.639 22.5173 31.8802 22.5173C27.1213 22.5173 24.2734 19.1762 24.2734 14.9414ZM36.1212 14.9414C36.1212 12.3092 34.6048 10.3675 31.8863 10.3675C29.1679 10.3675 27.6453 12.3154 27.6453 14.9414C27.6453 17.5673 29.1617 19.5214 31.8863 19.5214C34.6109 19.5214 36.1212 17.5735 36.1212 14.9414Z" fill="black"/>
<path d="M41.3486 14.9414C41.3486 10.7065 44.1965 7.36548 48.9554 7.36548C53.7142 7.36548 56.5621 10.7065 56.5621 14.9414C56.5621 19.1762 53.7142 22.5173 48.9554 22.5173C44.1965 22.5173 41.3486 19.1762 41.3486 14.9414ZM53.1964 14.9414C53.1964 12.3092 51.68 10.3675 48.9615 10.3675C46.2431 10.3675 44.7205 12.3154 44.7205 14.9414C44.7205 17.5673 46.2369 19.5214 48.9615 19.5214C51.6861 19.5214 53.1964 17.5735 53.1964 14.9414Z" fill="black"/>
<path d="M73.1817 0.757435V21.8886C73.1817 22.0303 73.0646 22.1475 72.9228 22.1475H70.0996C69.9578 22.1475 69.8406 22.0303 69.8406 21.8886V20.1995C68.9407 21.6543 66.9619 22.5173 65.199 22.5173C60.5573 22.5173 58.1162 19.1763 58.1162 14.9414C58.1162 10.7066 60.8038 7.36553 65.2914 7.36553C66.9311 7.36553 68.429 8.00045 69.3968 9.08537C69.5509 9.26413 69.8406 9.15317 69.8406 8.91277V0.757435C69.8406 0.615656 69.9578 0.498535 70.0996 0.498535H72.9228C73.0646 0.498535 73.1817 0.615656 73.1817 0.757435ZM69.9639 14.9414C69.9639 12.7716 68.8914 10.8853 66.6845 10.4538C63.8613 9.90521 61.3525 12.3833 61.4942 15.2558C61.6175 17.7215 63.1709 19.5215 65.6921 19.5215C68.5708 19.5215 69.9578 17.4195 69.9578 14.9414H69.9639Z" fill="black"/>
<path d="M77.1515 0.369141H79.9747C80.1165 0.369141 80.2336 0.486262 80.2336 0.62804V21.8886C80.2336 22.0304 80.1165 22.1475 79.9747 22.1475H77.1515C77.0097 22.1475 76.8926 22.0304 76.8926 21.8886V0.62804C76.8926 0.486262 77.0097 0.369141 77.1515 0.369141Z" fill="black"/>
<path d="M96.6673 16.0573H86.4901C86.336 16.0573 86.2127 16.1929 86.2251 16.347C86.4285 18.449 87.8894 19.5832 90.2257 19.5832C91.8284 19.5832 92.8023 19.1024 93.3695 18.0792C93.4126 17.999 93.4989 17.9436 93.5914 17.9436H96.5194C96.6858 17.9436 96.8215 18.1038 96.7783 18.2641C96.1865 20.7853 93.5482 22.5236 90.2195 22.5236C85.6703 22.5236 82.8594 19.6141 82.8594 14.9477C82.8594 10.2814 85.7073 7.37183 90.0962 7.37183C94.2078 7.37183 96.994 10.1581 96.994 14.208C96.994 14.732 96.9694 15.1573 96.9201 15.8169C96.9077 15.9525 96.7968 16.0634 96.6612 16.0634L96.6673 16.0573ZM93.4126 13.4929C93.5605 13.4929 93.69 13.3573 93.6838 13.2094C93.5482 11.1629 92.266 10.0286 90.0469 10.0286C87.8278 10.0286 86.3792 11.317 86.2251 13.2094C86.2127 13.3635 86.3422 13.4991 86.4963 13.4991H93.4188L93.4126 13.4929Z" fill="black"/>
</svg>
